<?xml version="1.0" encoding="UTF-8" standalone="no"?>
<!DOCTYPE svg PUBLIC "-//W3C//DTD SVG 1.1//EN" "http://www.w3.org/Graphics/SVG/1.1/DTD/svg11.dtd">
<svg version="1.1" xmlns="http://www.w3.org/2000/svg" xmlns:xlink="http://www.w3.org/1999/xlink" preserveAspectRatio="xMidYMid meet" viewBox="4.047335317121533 4.345500454735595 24.639274319884944 24.63927339725788" width="25" height="25"><defs><path d="M8.9 25.98C10.2 25.98 20.56 25.97 21.85 25.97C23.96 25.97 25.69 24.23 25.69 22.13C25.69 20.83 25.67 10.47 25.67 9.18C25.67 7.08 23.93 5.34 21.83 5.35C20.54 5.35 10.18 5.36 8.88 5.36C6.78 5.36 5.05 7.1 5.05 9.2C5.05 10.07 5.05 14.38 5.06 22.15C6.22 24.71 7.5 25.99 8.9 25.98ZM6.92 9.2C6.92 8.11 7.79 7.24 8.88 7.23C10.18 7.23 20.54 7.22 21.83 7.22C22.92 7.22 23.8 8.09 23.8 9.18C23.8 10.48 23.81 20.84 23.81 22.13C23.81 23.22 22.94 24.09 21.85 24.1C20.56 24.1 10.2 24.11 8.9 24.11C7.81 24.11 6.94 23.24 6.94 22.15C6.93 19.56 6.92 10.49 6.92 9.2ZM12 17.54C12.11 17.76 12.34 17.94 12.35 17.84C12.37 17.71 12.44 17.4 12.64 17.25C12.91 17.05 13.52 17.07 13.52 17.07C13.52 17.07 15.19 16.96 15.4 17.34C15.54 17.59 15.23 17.95 13.91 18.71C13.23 19.11 12.5 19.39 12.5 19.39C12.5 19.39 12.34 19.46 12.27 19.57C12.18 19.69 12.15 19.86 12.15 19.86C12.15 20.04 12.18 21.49 12.18 21.67C12.18 21.67 12.18 21.96 12.3 22.06C12.4 22.15 12.62 22.08 12.62 22.08C12.62 22.08 15.99 20.63 17.69 19C19.23 17.51 19.12 15.81 19.12 15.81C19.12 15.73 19.12 15.12 19.12 15.05C19.12 15.05 19.1 14.81 18.97 14.69C18.85 14.59 18.62 14.61 18.62 14.61C18.62 14.61 17.6 14.62 17.45 14.14C17.3 13.67 18.44 13.05 18.88 12.41C19.21 11.92 19.14 11.56 19.14 11.56C19.14 11.39 19.11 10.03 19.11 9.86C19.11 9.86 19.05 8.97 18.35 9.39C18.29 9.43 17.84 9.63 16.88 10.65C15.89 11.73 16.03 11.6 14.31 10.3C13.25 9.52 12.62 9.18 12.34 9.28C12.08 9.38 12.17 9.96 12.17 9.96C12.17 10.15 12.17 11.7 12.17 11.89C12.17 11.89 12.16 12.05 12.23 12.15C12.29 12.26 12.43 12.33 12.43 12.33C12.43 12.33 13.24 12.62 13.93 13.03C15.39 13.89 15.46 14.24 15.37 14.38C15.15 14.7 14.53 14.61 14.08 14.61C12.66 14.61 12.06 14.39 11.91 15.02C11.86 15.23 11.83 15.4 11.82 15.93C11.82 16.62 11.84 17.21 12 17.54Z" id="d9n7xSD4CA"></path></defs><g><g><use xlink:href="#d9n7xSD4CA" opacity="1" fill="#000000" fill-opacity="1"></use><g><use xlink:href="#d9n7xSD4CA" opacity="1" fill-opacity="0" stroke="#000000" stroke-width="1" stroke-opacity="0"></use></g></g></g></svg>